<?xml version="1.0" encoding="utf-8" ?>
<svg xmlns="http://www.w3.org/2000/svg" xmlns:xlink="http://www.w3.org/1999/xlink" width="316" height="316">
	<path d="M0 0L316 0L316 316L0 316L0 0Z"/>
	<path fill="#EAE9EA" d="M96.2967 75.5485C97.6967 75.4943 99.0973 75.4604 100.498 75.4471L196.401 75.4524L226.007 75.4421C231.004 75.4362 236.403 74.9993 241.344 75.6232C243.244 75.8631 245.05 76.9508 246.381 78.2998C247.606 79.5419 248.211 81.4462 248.478 83.1321C249.124 87.2009 248.733 91.7904 248.729 95.926L248.744 120.004C249.661 119.943 250.594 119.892 251.513 119.908C253.244 119.939 254.798 120.509 255.996 121.777C256.822 122.65 257.143 123.431 257.333 124.607C258.084 129.266 257.568 134.627 257.558 139.353C257.546 145.444 257.798 151.64 257.593 157.717C257.522 159.797 257.152 161.411 255.55 162.85C253.665 164.543 251.11 164.422 248.742 164.329C248.458 180.713 248.688 197.146 248.704 213.535L248.732 225.89C248.737 228.748 248.916 231.78 248.424 234.603C248.131 236.285 247.175 237.772 245.971 238.958C244.808 240.103 243.356 240.789 241.773 241.143C237.515 242.095 225.64 241.49 220.625 241.472C217.174 241.478 213.704 241.556 210.256 241.381C210.167 244.719 210.119 248.027 207.627 250.583C205.517 252.748 202.672 253.266 199.769 253.316C195.401 253.391 185.073 253.854 181.261 252.942C179.763 252.583 178.368 251.865 177.267 250.779C174.673 248.219 174.546 244.83 174.498 241.419C172.625 241.542 170.636 241.541 168.775 241.305C168.704 243.753 168.817 246.587 167.038 248.511C165.536 250.136 163.614 250.21 161.506 250.292C156.21 250.499 150.837 250.327 145.533 250.324C141.443 250.321 134.355 250.864 130.613 249.886C130.05 249.739 129.464 249.209 129.049 248.813C126.979 246.836 127.133 244.097 127.1 241.459L107.523 241.489C103.504 241.494 98.7134 241.972 94.8153 241.041C93.4129 240.706 92.2168 239.926 91.2041 238.911C90.0231 237.728 89.1757 236.338 88.8783 234.684C87.9809 229.694 88.5284 222.28 88.5317 216.977L88.5297 182.228C86.0122 182.256 83.4385 182.429 81.5036 180.511C79.7265 178.749 79.7168 176.327 79.6935 173.947L79.6726 152.575C79.6746 148.622 79.366 144.366 79.8528 140.447C80.029 139.028 80.2198 137.546 81.2769 136.496C83.2607 134.525 85.9462 134.74 88.5234 134.784L88.5348 100.217C88.5302 94.5809 88.0634 88.4846 88.7736 82.8962C88.93 81.6657 89.3237 80.5853 89.9851 79.5368C91.4577 77.2022 93.68 76.1187 96.2967 75.5485Z"/>
	<path d="M96.8679 81.3378C103.669 80.9756 110.638 81.267 117.459 81.2662L156.76 81.2635L209.808 81.2652C219.207 81.2661 228.665 81.0511 238.058 81.3147C239.263 81.3485 240.922 81.208 241.909 81.9672C242.511 82.6841 242.584 83.8953 242.667 84.7981C243.029 88.7475 242.776 92.9052 242.775 96.8742L242.754 119.956L224.99 119.927C221.572 119.923 217.654 119.579 214.305 120.245C213.389 120.426 212.732 120.786 212.06 121.428C210.392 123.02 210.22 124.832 210.179 127.036C210.048 134.183 210.155 141.353 210.161 148.502C210.163 152.037 209.736 156.261 210.345 159.724C210.536 160.811 211.145 161.838 211.917 162.613C212.666 163.366 213.545 163.863 214.589 164.074C217.72 164.708 221.464 164.361 224.658 164.358C230.693 164.318 236.729 164.338 242.764 164.417L242.773 208.661C242.774 216.003 243.174 223.587 242.717 230.894C242.634 232.22 242.476 233.964 241.732 235.097C238.684 236.114 215.226 235.499 210.163 235.49L210.141 206.992C210.141 202.602 210.63 197.199 209.938 192.945C209.759 191.797 209.22 190.736 208.399 189.914C207.618 189.136 206.764 188.575 205.68 188.324C202.172 187.511 197.807 188.069 194.212 188.095C190.593 188.122 186.975 188.029 183.357 188.013C180.622 188 178.253 187.943 176.205 190.05C175.418 190.861 174.949 191.856 174.778 192.969C174.098 197.419 174.548 202.469 174.554 206.977L174.564 232.612L174.587 235.496L168.613 235.508L168.654 222.079C168.661 219.492 168.898 216.678 168.47 214.13C168.248 212.808 167.893 211.63 166.946 210.645C165.039 208.662 162.335 208.912 159.802 208.894L141.269 208.868C138.182 208.87 134.488 208.527 131.468 209.116C130.469 209.311 129.573 209.876 128.863 210.595C128.12 211.347 127.718 212.07 127.496 213.103C126.598 217.293 127.197 230.39 127.22 235.482C123.424 235.521 96.8321 236.002 95.5169 235.001C94.9049 233.803 94.6863 232.459 94.5794 231.127C94.1335 225.571 94.4983 219.698 94.4982 214.1C94.4981 203.479 94.436 192.853 94.5655 182.234L100.381 182.245C100.428 184.989 99.7611 193.732 100.977 195.733C101.306 196.276 101.943 196.636 102.544 196.789C104.912 197.394 124.528 197.323 125.648 196.587C126.363 196.118 126.838 195.433 126.958 194.582C127.102 193.558 126.801 192.661 126.19 191.85C124.131 190.468 120.653 191.083 118.281 191.224C118.22 189.146 118.279 187.061 118.306 184.983C119.984 185.057 124.742 185.716 125.935 184.605C126.671 183.909 127.079 182.935 127.06 181.923C127.048 181.207 126.815 180.546 126.27 180.063C124.56 178.544 120.469 179.179 118.283 179.259C118.253 177.264 118.273 175.266 118.27 173.272L125.296 173.292L125.451 173.142C126.309 172.296 127.286 171.119 127.229 169.836C127.202 169.215 126.908 168.755 126.427 168.377C124.373 166.765 120.709 167.29 118.286 167.501C118.219 165.418 118.28 163.323 118.3 161.239C120.123 161.322 124.704 162.002 126.029 160.752C126.7 160.119 127.032 159.241 127.018 158.323C127.006 157.55 126.716 156.712 126.136 156.181C124.692 154.857 120.234 155.432 118.267 155.473C118.252 153.479 118.282 151.482 118.29 149.488C120.389 149.558 124.384 150.216 126.087 148.829C126.737 148.3 127.022 147.537 127.059 146.716C127.095 145.926 126.893 145.108 126.301 144.55C124.699 143.038 120.416 143.687 118.288 143.765C118.229 141.678 118.277 139.58 118.285 137.492C120.651 137.703 123.067 137.641 125.443 137.664C126.258 136.803 127.114 135.688 127.186 134.45C127.22 133.857 127.015 133.335 126.584 132.928C124.715 131.161 120.624 131.717 118.269 131.774C118.247 129.77 118.276 127.762 118.28 125.758C120.449 125.87 124.281 126.55 126.103 125.09C126.671 124.635 126.978 123.97 127.039 123.252C127.117 122.326 126.837 121.363 126.202 120.674C125.657 120.084 125.094 120.016 124.332 119.967C121.334 119.772 102.345 119.478 101.059 120.765C99.9503 121.873 100.435 132.524 100.324 134.788C98.3997 134.767 96.4708 134.802 94.5458 134.81C94.4366 128.386 93.9554 84.5753 94.9955 82.6073C95.4252 81.7942 96.047 81.5962 96.8679 81.3378Z"/>
	<path fill="#EAE9EA" d="M150.131 134.84C156.803 134.536 163.598 134.771 170.282 134.766C175.66 134.761 181.26 134.445 186.614 134.855C187.521 134.924 188.399 135.095 189.224 135.491C190.401 136.058 191.47 137.087 191.892 138.347C192.763 140.944 192.625 171.235 192.323 175.767C192.251 176.85 192.165 177.982 191.669 178.965C190.846 180.595 189.378 181.531 187.69 182.07C180.929 182.694 173.72 182.21 166.913 182.2C161.642 182.191 156.075 182.617 150.845 182.173C149.763 182.081 148.619 181.899 147.694 181.297C146.437 180.48 145.463 179.128 145.184 177.649C144.647 174.798 144.92 171.572 144.925 168.662L144.985 153.016C144.994 148.944 144.564 144.612 144.961 140.57C145.083 139.324 145.436 138.074 146.163 137.041C147.169 135.61 148.464 135.106 150.131 134.84Z"/>
	<path d="M150.995 140.526C154.586 141.121 158.841 140.701 162.484 140.7L186.397 140.712C186.702 152.542 186.463 164.438 186.453 176.276L150.953 176.261C150.583 170.049 150.803 163.718 150.801 157.49C150.798 151.872 150.531 146.123 150.995 140.526Z"/>
	<path fill="#EAE9EA" d="M226.608 87.3589C231.427 86.6551 235.914 89.9606 236.671 94.7712C237.427 99.5817 234.171 104.105 229.369 104.915C226.216 105.446 223.02 104.242 221.001 101.762C218.982 99.2821 218.451 95.9084 219.611 92.9282C220.771 89.948 223.443 87.8211 226.608 87.3589Z"/>
	<path d="M226.91 93.4154C227.931 93.0326 229.079 93.2478 229.892 93.9742C230.705 94.7006 231.048 95.8181 230.781 96.8752C230.515 97.9323 229.684 98.7544 228.624 99.0092C227.119 99.3712 225.591 98.4991 225.137 97.0184C224.683 95.5376 225.46 93.9594 226.91 93.4154Z"/>
	<path fill="#EAE9EA" d="M108.078 211.907C112.92 211.228 117.401 214.591 118.102 219.431C118.802 224.27 115.459 228.766 110.622 229.488C105.755 230.214 101.225 226.845 100.521 221.975C99.8158 217.105 103.205 212.59 108.078 211.907Z"/>
	<path d="M108.894 217.719C109.98 217.567 111.064 218.013 111.728 218.886C112.392 219.76 112.532 220.924 112.094 221.929C111.656 222.935 110.708 223.626 109.617 223.735C107.975 223.898 106.504 222.719 106.308 221.081C106.111 219.443 107.26 217.949 108.894 217.719Z"/>
	<path fill="#EAE9EA" d="M107.983 87.3734C112.788 86.6467 117.285 89.9164 118.075 94.7112C118.865 99.5059 115.654 104.045 110.87 104.898C107.719 105.46 104.51 104.283 102.469 101.817C100.429 99.3505 99.8729 95.9772 101.015 92.987C102.156 89.9967 104.819 87.8521 107.983 87.3734Z"/>
	<path d="M108.158 93.4341C109.175 93.0034 110.346 93.1725 111.2 93.8732C112.053 94.5739 112.447 95.6904 112.222 96.7715C111.998 97.8525 111.191 98.7195 110.129 99.022C108.621 99.4518 107.039 98.6339 106.517 97.1548C105.995 95.6758 106.714 94.046 108.158 93.4341Z"/>
	<path fill="#EAE9EA" d="M226.763 211.897C231.609 211.273 236.048 214.681 236.697 219.524C237.346 224.366 233.961 228.823 229.122 229.497C224.247 230.176 219.751 226.761 219.097 221.883C218.443 217.005 221.882 212.526 226.763 211.897Z"/>
	<path d="M226.844 217.94C228.368 217.338 230.093 218.073 230.715 219.588C231.337 221.104 230.625 222.839 229.117 223.481C228.124 223.904 226.98 223.76 226.123 223.103C225.266 222.447 224.828 221.38 224.977 220.311C225.127 219.242 225.84 218.336 226.844 217.94Z"/>
	<path fill="#EAE9EA" d="M173.519 87.4134C174.537 87.0462 175.673 87.2558 176.493 87.9617C177.313 88.6676 177.689 89.7605 177.477 90.8213C177.265 91.8822 176.498 92.7466 175.47 93.0833C173.913 93.5932 172.234 92.7586 171.701 91.2092C171.168 89.6598 171.978 87.9694 173.519 87.4134Z"/>
	<path fill="#EAE9EA" d="M197.288 87.4195C198.855 86.8717 200.569 87.7058 201.104 89.2772C201.64 90.8486 200.793 92.5555 199.217 93.0791C197.659 93.5969 195.975 92.7608 195.445 91.2065C194.915 89.6521 195.738 87.9614 197.288 87.4195Z"/>
	<path fill="#EAE9EA" d="M149.86 87.4234C151.431 86.8944 153.133 87.7474 153.648 89.3228C154.164 90.8983 153.297 92.5921 151.717 93.0945C150.156 93.591 148.486 92.7362 147.977 91.1794C147.467 89.6226 148.308 87.9461 149.86 87.4234Z"/>
	<path fill="#EAE9EA" d="M197.681 99.1668C198.752 98.9502 199.856 99.3382 200.556 100.178C201.257 101.017 201.441 102.173 201.036 103.188C200.63 104.203 199.701 104.915 198.616 105.042C197.03 105.226 195.581 104.129 195.331 102.553C195.08 100.977 196.116 99.4831 197.681 99.1668Z"/>
	<path fill="#EAE9EA" d="M173.963 99.1631C175.032 98.9524 176.13 99.3419 176.827 100.179C177.523 101.016 177.708 102.166 177.307 103.179C176.906 104.191 175.984 104.904 174.903 105.037C173.313 105.233 171.853 104.136 171.6 102.554C171.347 100.972 172.392 99.4731 173.963 99.1631Z"/>
	<path fill="#EAE9EA" d="M126.2 87.4084C127.772 86.9131 129.446 87.7918 129.93 89.3662C130.415 90.9406 129.525 92.6087 127.948 93.083C126.385 93.5529 124.736 92.6732 124.256 91.1136C123.775 89.5539 124.644 87.899 126.2 87.4084Z"/>
	<path fill="#EAE9EA" d="M126.771 99.154C128.355 98.9814 129.79 100.094 130.019 101.67C130.247 103.246 129.186 104.721 127.619 105.005C126.555 105.197 125.47 104.794 124.79 103.952C124.111 103.111 123.945 101.966 124.358 100.966C124.77 99.966 125.696 99.2713 126.771 99.154Z"/>
	<path fill="#EAE9EA" d="M149.558 99.4294C151.025 98.7393 152.774 99.3598 153.479 100.82C154.183 102.28 153.58 104.036 152.127 104.754C150.653 105.483 148.868 104.87 148.154 103.389C147.439 101.908 148.07 100.129 149.558 99.4294Z"/>
	<path fill="#EAE9EA" d="M138.088 87.4234C139.644 86.9372 141.3 87.8043 141.787 89.3605C142.275 90.9167 141.408 92.5733 139.853 93.0615C138.295 93.55 136.637 92.683 136.149 91.1254C135.662 89.5678 136.53 87.91 138.088 87.4234Z"/>
	<path fill="#EAE9EA" d="M185.474 87.4354C187.026 86.9216 188.7 87.7708 189.202 89.3269C189.704 90.883 188.842 92.5503 187.282 93.0407C185.739 93.5259 184.093 92.6753 183.596 91.1356C183.099 89.5959 183.938 87.9437 185.474 87.4354Z"/>
	<path fill="#EAE9EA" d="M161.784 87.4411C163.331 86.9436 164.989 87.7941 165.488 89.3414C165.986 90.8886 165.137 92.5471 163.59 93.0466C162.042 93.5465 160.381 92.6961 159.882 91.1475C159.383 89.5989 160.235 87.9391 161.784 87.4411Z"/>
	<path fill="#EAE9EA" d="M209.29 87.4306C210.84 86.9675 212.473 87.8473 212.939 89.397C213.405 90.9468 212.529 92.5813 210.98 93.0504C209.427 93.5208 207.787 92.6413 207.319 91.0873C206.852 89.5333 207.735 87.895 209.29 87.4306Z"/>
	<path fill="#EAE9EA" d="M137.801 99.4174C139.292 98.7701 141.026 99.4613 141.663 100.957C142.3 102.454 141.597 104.182 140.096 104.809C138.61 105.43 136.902 104.735 136.271 103.253C135.64 101.772 136.323 100.059 137.801 99.4174Z"/>
	<path fill="#EAE9EA" d="M162.304 99.189C163.896 98.9843 165.355 100.098 165.578 101.687C165.801 103.277 164.703 104.749 163.117 104.989C162.074 105.147 161.028 104.733 160.376 103.904C159.724 103.076 159.568 101.961 159.967 100.985C160.366 100.01 161.259 99.3235 162.304 99.189Z"/>
	<path fill="#EAE9EA" d="M185.228 99.4402C186.192 99.0153 187.309 99.143 188.152 99.7743C188.995 100.406 189.433 101.442 189.296 102.487C189.16 103.531 188.471 104.42 187.494 104.814C186.017 105.409 184.336 104.709 183.717 103.242C183.098 101.775 183.771 100.083 185.228 99.4402Z"/>
	<path fill="#EAE9EA" d="M209.801 99.1944C211.372 99.014 212.8 100.118 213.02 101.683C213.241 103.249 212.174 104.705 210.615 104.966C209.571 105.141 208.513 104.735 207.853 103.906C207.193 103.077 207.035 101.956 207.44 100.977C207.845 99.9976 208.749 99.3153 209.801 99.1944Z"/>
	<path d="M216.086 125.78C222.182 126.106 228.386 125.843 234.496 125.882C240.122 125.917 246.038 126.348 251.622 125.772C251.686 136.66 251.85 147.599 251.573 158.482L216.102 158.5C216.138 147.602 216.221 136.676 216.086 125.78Z"/>
	<path fill="#EAE9EA" d="M224.009 146.591C226.681 146.462 234.817 146.179 237.083 146.575C237.93 146.722 238.816 147.064 239.302 147.814C239.787 148.565 239.845 149.697 239.583 150.541C239.299 151.455 238.695 152.04 237.882 152.494C235 152.514 225.996 152.956 223.883 152.313C223.257 152.123 222.706 151.574 222.418 150.998C222.002 150.164 222.008 149.111 222.351 148.254C222.69 147.407 223.183 146.941 224.009 146.591Z"/>
	<path fill="#EAE9EA" d="M224.103 131.807C227.422 131.759 234.048 131.186 237.095 131.893C238.012 132.106 238.984 132.532 239.466 133.387C239.876 134.114 239.804 134.917 239.55 135.684C239.245 136.601 238.724 137.248 237.85 137.657C234.455 137.69 227.598 138.29 224.511 137.433C223.625 137.187 222.79 136.746 222.357 135.895C221.978 135.147 222.062 134.281 222.331 133.51C222.663 132.562 223.242 132.195 224.103 131.807Z"/>
	<path d="M133.025 214.741C142.877 215.015 152.852 214.955 162.707 214.785C162.715 224.648 162.415 234.563 162.712 244.417L132.995 244.434C132.936 234.536 132.946 224.638 133.025 214.741Z"/>
	<path fill="#EAE9EA" d="M140.733 223.756C141.039 223.735 141.346 223.72 141.652 223.714C142.472 223.699 143.232 223.851 143.816 224.477C145.293 226.063 145.228 229.036 145.046 231.029C144.869 232.967 144.701 234.113 143.173 235.372C142.684 235.457 142.163 235.496 141.667 235.464C140.947 235.417 140.348 235.126 139.883 234.568C138.446 232.843 138.685 229.626 138.912 227.567C139.104 225.834 139.33 224.871 140.733 223.756Z"/>
	<path fill="#EAE9EA" d="M152.643 223.757C153.171 223.734 153.718 223.718 154.243 223.782C154.948 223.868 155.491 224.248 155.889 224.829C157.323 226.923 157.107 230.604 156.572 232.954C156.284 234.221 155.865 234.771 154.787 235.46C154.391 235.459 153.997 235.461 153.602 235.437C152.855 235.39 152.264 235.124 151.793 234.524C150.379 232.724 150.551 229.428 150.849 227.315C151.076 225.71 151.312 224.764 152.643 223.757Z"/>
	<path d="M180.504 193.934C188.374 194.191 196.309 193.992 204.187 193.985C204.258 203.832 204.257 213.679 204.184 223.526L195.294 223.527L195.267 217.997C195.293 215.982 195.83 211.361 194.587 209.814C194.103 209.212 193.198 208.907 192.448 208.874C191.699 208.841 190.82 209.055 190.27 209.592C188.854 210.976 189.365 221.107 189.293 223.523L180.484 223.541C180.313 213.689 180.41 203.788 180.504 193.934Z"/>
	<path d="M85.7279 140.49C89.2976 141.21 96.4075 140.817 100.213 140.615C100.333 152.502 100.269 164.403 100.213 176.29C95.3673 176.192 90.5199 176.184 85.6737 176.266C85.4286 170.708 85.5821 165.078 85.5776 159.514C85.5724 153.184 85.4265 146.813 85.7279 140.49Z"/>
	<path d="M180.493 229.761C188.051 230.298 196.595 229.978 204.21 229.806C204.252 234.272 204.942 242.549 203.663 246.485C203.12 246.907 202.668 247.162 201.984 247.279C199.139 247.763 186.877 247.762 184.008 247.362C182.916 247.209 181.935 246.939 181.025 246.299C179.78 244.529 180.475 232.652 180.493 229.761Z"/>
	<path d="M106.316 125.774C108.31 125.845 110.286 125.892 112.28 125.826C112.581 147.564 112.027 169.321 112.339 191.062C110.328 191.058 108.34 191.068 106.335 191.23C106.163 183.465 106.299 175.669 106.299 167.902L106.316 125.774Z"/>
</svg>
